<?xml version="1.0" standalone="no"?>
<!DOCTYPE svg PUBLIC "-//W3C//DTD SVG 20010904//EN"
 "http://www.w3.org/TR/2001/REC-SVG-20010904/DTD/svg10.dtd">
<svg version="1.0" xmlns="http://www.w3.org/2000/svg"
 width="618.000000pt" height="564.000000pt" viewBox="0 0 618.000000 564.000000"
 preserveAspectRatio="xMidYMid meet">

<g transform="translate(0.000000,564.000000) scale(0.100000,-0.100000)"
fill="#000000" stroke="none">
<path d="M2825 4993 c-959 -46 -1587 -218 -1972 -542 -61 -51 -63 -55 -63 -99
-1 -74 -18 -176 -41 -236 -31 -85 -85 -158 -221 -301 -180 -189 -198 -219
-219 -369 -22 -166 17 -316 166 -626 126 -264 137 -302 156 -530 12 -151 1
-328 -41 -664 -37 -294 -54 -543 -46 -661 8 -100 29 -148 112 -256 116 -151
304 -257 549 -311 119 -26 407 -35 581 -19 175 17 429 60 666 115 109 26 287
62 395 81 319 56 355 68 688 240 121 62 339 168 485 235 612 282 877 437 1091
638 140 132 197 215 263 385 76 194 124 263 325 470 264 274 315 372 314 612
0 245 -64 365 -317 594 -179 162 -277 266 -316 333 -16 29 -59 127 -95 219
-40 100 -84 194 -114 240 -124 188 -306 355 -451 414 -40 16 -83 18 -370 20
-179 2 -422 8 -540 14 -190 9 -822 12 -985 4z m1658 -113 c188 -16 296 -67
418 -197 85 -90 147 -192 260 -423 93 -190 161 -308 225 -393 l37 -48 -145 7
c-122 6 -149 4 -174 -9 -28 -16 -25 -16 92 -17 147 0 240 -21 353 -80 143 -75
270 -218 321 -361 30 -88 37 -231 16 -323 -44 -185 -216 -392 -403 -484 -29
-15 -53 -30 -53 -34 0 -12 7 -10 52 13 30 15 43 18 52 9 8 -8 7 -14 -5 -23 -9
-7 -36 -26 -60 -43 -59 -41 -100 -113 -158 -277 -27 -75 -60 -154 -72 -174
-120 -198 -344 -391 -669 -575 -152 -86 -267 -144 -616 -308 -160 -75 -377
-183 -482 -239 -295 -158 -303 -161 -458 -159 l-129 2 -225 -76 c-157 -54
-272 -86 -380 -107 -298 -57 -392 -66 -685 -66 -241 1 -281 3 -373 23 -145 32
-263 77 -348 134 -88 59 -143 121 -187 208 l-32 65 1 175 c2 160 13 289 60
700 8 69 17 220 20 335 11 376 -30 554 -178 774 -75 110 -105 183 -119 285
-20 153 6 294 74 401 18 27 78 98 134 157 171 179 212 261 217 433 l3 90 80
80 c186 186 430 317 685 369 98 20 283 20 493 1 278 -26 373 -21 810 42 218
31 276 36 455 37 230 1 293 -8 483 -71 151 -50 318 -137 557 -289 213 -136
320 -200 320 -190 0 3 -60 50 -132 104 -347 260 -599 389 -890 454 -93 21
-127 23 -353 22 -229 0 -273 -3 -526 -37 -383 -51 -548 -62 -722 -48 -77 6
-147 16 -156 21 -9 5 -11 10 -5 10 5 0 116 13 245 30 250 31 630 65 899 80
198 10 1220 3 1373 -10z"/>
<path d="M3120 4660 c-52 -4 -174 -19 -270 -34 -294 -44 -427 -56 -615 -56
-150 0 -203 4 -320 26 -185 34 -312 36 -380 5 -48 -21 -115 -76 -115 -93 0
-11 53 17 107 55 l43 30 187 -21 c320 -37 454 -44 696 -39 188 4 248 9 317 25
252 61 263 63 450 69 214 6 359 -9 542 -56 259 -67 516 -200 748 -385 47 -38
92 -74 100 -80 43 -32 -86 107 -150 162 -345 296 -812 433 -1340 392z"/>
<path d="M3207 4470 c-43 -4 -81 -10 -84 -14 -4 -3 81 -6 188 -6 361 0 636
-53 843 -163 85 -45 191 -136 227 -193 32 -53 35 -33 3 26 -85 156 -317 280
-629 336 -103 18 -428 27 -548 14z"/>
<path d="M1840 4409 c-149 -13 -325 -67 -391 -121 -22 -18 -54 -83 -74 -152
-21 -73 -14 -82 13 -17 24 59 89 133 152 173 160 102 485 117 734 34 71 -24
85 -22 86 11 0 20 -32 31 -151 52 -142 24 -247 30 -369 20z"/>
<path d="M3109 4333 l-61 -78 4 -73 c6 -94 28 -122 28 -36 0 78 34 148 101
208 38 34 45 45 33 50 -33 13 -45 4 -105 -71z"/>
<path d="M2206 4231 c-3 -5 15 -34 40 -64 l45 -56 -6 -93 c-6 -76 -4 -97 9
-113 14 -18 15 -10 16 109 0 127 0 129 -32 177 -29 46 -59 62 -72 40z"/>
<path d="M3527 4075 c-196 -34 -353 -103 -456 -201 -101 -95 -122 -154 -81
-221 11 -18 38 -45 60 -60 23 -16 60 -42 83 -59 l42 -30 110 52 c219 104 401
148 610 148 114 1 155 -4 220 -21 140 -39 186 -40 250 -8 63 30 63 29 18 124
-57 119 -189 213 -368 261 -103 28 -368 37 -488 15z m56 -123 c-2 -10 5 -45
16 -77 12 -33 21 -62 21 -66 0 -4 -30 -10 -67 -14 -53 -6 -88 -18 -167 -59
-125 -65 -168 -80 -212 -72 -30 6 -34 11 -34 37 0 59 47 116 134 161 49 26
274 107 298 107 11 1 15 -5 11 -17z m624 -109 c31 -15 63 -56 52 -68 -3 -2
-23 2 -44 10 -22 8 -54 14 -70 15 -35 0 -55 16 -55 42 0 14 8 18 41 18 23 0
57 -7 76 -17z"/>
<path d="M1612 3936 c-74 -19 -142 -64 -179 -120 -48 -70 -45 -82 30 -105 74
-22 166 -37 337 -51 221 -19 291 -32 397 -72 l53 -19 0 -112 0 -112 -190 -149
c-219 -173 -331 -250 -449 -309 -45 -23 -78 -43 -72 -45 27 -9 88 12 186 64
57 29 110 54 117 54 8 0 24 -20 35 -44 25 -50 44 -52 84 -10 12 13 29 24 36
24 8 0 72 -58 141 -129 151 -153 188 -181 248 -181 61 0 119 54 153 142 8 23
7 29 -14 42 -22 14 -26 14 -61 -10 -21 -14 -47 -30 -60 -34 -31 -12 -110 27
-166 83 -57 58 -128 162 -128 190 0 35 48 85 123 129 40 23 87 53 105 66 l32
24 0 144 0 143 28 19 c15 10 48 26 74 36 61 23 94 49 103 83 12 50 -50 67
-150 42 l-45 -11 -60 56 c-70 64 -164 113 -295 152 -73 21 -115 27 -225 30
-91 2 -152 -1 -188 -10z m237 -120 c22 -12 20 -13 -30 -19 -86 -11 -179 -8
-202 6 -20 11 -18 12 28 18 91 11 179 9 204 -5z"/>
<path d="M4498 3810 c26 -22 83 -40 125 -40 52 0 24 -25 -31 -28 -62 -4 -67
-17 -11 -32 67 -18 135 6 157 55 11 24 10 25 -28 25 -21 0 -76 9 -122 20 -105
25 -120 25 -90 0z"/>
<path d="M1120 3769 c-25 -6 -103 -11 -175 -12 l-130 -2 -62 -38 c-79 -48
-142 -110 -192 -187 -65 -101 -76 -145 -76 -305 1 -124 4 -148 25 -205 30 -76
51 -93 184 -145 51 -20 109 -47 129 -60 45 -31 47 -31 47 -1 0 34 -41 61 -146
96 -144 49 -159 63 -188 177 -25 100 -29 172 -12 249 40 194 178 323 411 385
65 18 109 22 237 22 145 1 156 2 135 16 -26 19 -124 24 -187 10z"/>
<path d="M5012 3752 c-8 -5 44 -11 135 -15 165 -7 222 -16 306 -47 71 -27 158
-105 207 -186 l35 -58 3 -171 c2 -93 7 -174 11 -178 14 -14 22 155 11 238 -27
215 -114 330 -296 396 -49 18 -87 22 -229 26 -93 2 -176 0 -183 -5z"/>
<path d="M4470 3675 c0 -11 66 -45 85 -45 18 1 17 3 -8 25 -24 22 -77 35 -77
20z"/>
<path d="M3770 3612 c0 -48 42 -134 83 -168 96 -81 257 -120 462 -110 214 9
374 55 514 147 l74 49 91 0 c149 0 249 -36 328 -117 69 -72 116 -201 104 -288
-3 -24 -19 -78 -36 -121 -35 -88 -46 -157 -32 -194 l10 -25 44 47 c185 200
183 459 -3 648 -111 113 -257 170 -434 170 -136 0 -191 -16 -380 -111 -183
-91 -267 -115 -377 -105 -89 8 -160 36 -233 92 -85 65 -131 94 -176 109 l-39
14 0 -37z"/>
<path d="M829 3581 c-36 -16 -83 -40 -106 -55 l-40 -27 -12 -145 c-10 -115
-10 -148 -1 -160 7 -8 16 -12 19 -8 3 3 8 61 11 129 6 147 14 162 110 212 66
35 100 60 100 75 0 12 -7 10 -81 -21z"/>
<path d="M960 3491 c-46 -14 -88 -40 -110 -68 -26 -34 -53 -94 -44 -102 3 -3
65 7 137 22 258 53 348 32 383 -91 l16 -55 127 6 c144 7 209 25 245 68 35 41
45 98 21 116 -30 21 -58 15 -124 -27 l-63 -41 -47 36 c-68 49 -182 101 -275
125 -81 20 -216 26 -266 11z"/>
<path d="M4910 3420 c-15 -15 -20 -33 -20 -74 l0 -54 -177 -80 c-963 -435
-1768 -654 -2403 -653 -432 0 -735 87 -988 286 -83 65 -86 72 -101 245 -13
149 -24 180 -61 180 -36 0 -43 -11 -51 -80 -4 -38 -25 -94 -67 -180 -34 -69
-68 -150 -76 -181 -41 -160 -46 -529 -11 -729 51 -285 148 -478 279 -555 56
-33 200 -79 326 -104 546 -109 1513 -85 1943 48 200 61 459 187 651 315 274
183 392 305 606 626 103 155 159 229 227 301 l54 56 -12 45 c-11 40 -10 49 16
106 15 35 36 64 46 67 10 4 52 1 92 -6 73 -12 141 -7 153 12 10 17 -45 67
-136 122 -47 28 -102 64 -122 80 -45 36 -85 112 -94 179 -6 42 -9 48 -30 48
-13 0 -33 -9 -44 -20z m36 -332 c-24 -188 -187 -331 -448 -395 -60 -15 -109
-25 -110 -22 -2 2 -1 56 1 119 l3 115 97 47 c53 26 137 70 186 98 98 55 191
89 244 89 l34 1 -7 -52z m-3796 -277 c-11 -40 -29 -71 -40 -71 -20 0 -4 46 28
83 20 23 22 22 12 -12z m3116 -13 c-10 -64 -62 -163 -104 -198 -58 -49 -164
-95 -320 -140 -79 -22 -169 -50 -199 -61 -30 -12 -56 -19 -57 -17 -3 4 -54
253 -52 254 4 3 479 142 581 170 161 44 159 44 151 -8z m-2979 -218 c-5 -109
-33 -230 -52 -230 -7 0 -25 14 -40 32 -25 29 -27 38 -22 93 4 62 27 124 74
204 26 44 26 44 35 20 6 -13 8 -67 5 -119z m3405 -17 c-22 -27 -59 -79 -82
-118 -75 -124 -164 -215 -211 -215 -21 0 -39 52 -39 113 0 103 116 208 280
251 92 25 96 22 52 -31z m-3198 8 c25 -15 66 -34 91 -41 39 -11 45 -16 45 -39
0 -14 -14 -55 -31 -91 -29 -62 -32 -90 -15 -132 7 -16 3 -15 -48 2 -30 11 -69
20 -86 20 -17 0 -30 5 -30 13 0 6 -7 49 -15 95 -16 91 -10 149 21 183 9 10 18
19 20 19 2 0 24 -13 48 -29z m1920 -17 c13 -49 46 -216 46 -229 0 -7 -18 -15
-44 -19 -23 -4 -108 -23 -187 -42 -114 -28 -171 -37 -276 -41 l-133 -6 0 121
c0 106 2 121 18 126 45 13 491 104 563 115 4 1 10 -11 13 -25z m-1421 -114
c143 -12 184 -21 177 -41 -3 -8 -5 -50 -5 -94 l0 -80 -138 2 c-129 3 -237 18
-300 42 -26 10 -27 12 -13 33 8 13 20 52 26 88 18 100 20 102 80 79 31 -12 99
-23 173 -29z m707 -100 l0 -120 -210 0 -210 0 0 33 c0 18 9 58 20 90 11 31 20
62 20 69 0 9 22 14 73 15 39 1 106 9 147 17 41 7 94 14 118 15 l42 1 0 -120z
m1532 6 c-5 -55 22 -151 53 -192 14 -18 26 -36 27 -42 2 -6 -33 -35 -77 -64
-44 -30 -144 -98 -222 -151 -78 -53 -164 -107 -191 -121 l-50 -25 -11 45 c-6
25 -32 83 -56 128 -50 92 -72 176 -57 216 8 20 23 29 78 43 92 24 277 98 394
158 52 26 100 48 105 48 6 1 9 -18 7 -43z m-648 -487 c85 -177 97 -155 -117
-219 -234 -69 -294 -82 -392 -83 -135 -2 -129 -7 -134 125 -2 62 -4 149 -5
192 l-1 79 85 17 c115 22 211 51 365 108 l130 49 7 -77 c5 -66 15 -95 62 -191z
m-2357 -37 c10 -23 11 -41 4 -65 -9 -32 -9 -32 -17 -7 -4 14 -27 63 -51 110
-23 47 -43 98 -43 115 0 26 5 21 46 -45 26 -41 53 -90 61 -108z m178 56 c37
-44 78 -121 115 -217 l21 -53 -48 7 c-69 10 -162 41 -184 61 -24 22 -25 38 -1
23 24 -15 71 -4 79 18 6 16 -3 54 -31 130 -15 40 -13 73 4 73 5 0 25 -19 45
-42z m1412 -115 c-1 -108 3 -167 11 -187 7 -16 9 -33 5 -37 -17 -17 -154 -30
-288 -27 l-140 3 -30 170 -31 170 110 6 c109 7 264 31 309 49 57 23 56 24 54
-147z m-1152 87 c32 -11 70 -20 85 -20 25 0 28 -4 32 -42 3 -24 21 -80 42
-126 51 -118 51 -121 -26 -109 -35 5 -76 15 -93 21 -28 12 -30 16 -30 62 0 41
-8 62 -46 124 -75 122 -73 127 36 90z m473 -21 c72 -35 121 -129 137 -264 l8
-58 -94 6 c-52 3 -111 11 -132 19 -33 11 -41 20 -57 63 -10 28 -33 84 -52 125
-52 111 -53 118 -26 123 13 2 56 5 97 6 58 1 85 -4 119 -20z"/>
<path d="M3095 3198 c-36 -19 -65 -51 -65 -70 0 -25 33 -36 142 -48 121 -14
128 -18 128 -82 0 -46 -4 -54 -39 -87 -65 -61 -83 -123 -38 -135 106 -28 179
48 193 200 9 98 -5 143 -57 176 -69 45 -219 71 -264 46z"/>
<path d="M3451 3187 c-17 -17 -13 -62 9 -90 33 -42 76 -50 223 -42 123 7 163
3 220 -20 22 -9 23 17 1 36 -13 11 -54 13 -176 11 -185 -3 -231 6 -253 47 -13
27 -13 30 7 43 l22 15 -21 5 c-12 3 -26 1 -32 -5z"/>
<path d="M670 3139 c23 -78 89 -138 153 -139 26 0 24 4 -37 55 -36 30 -74 69
-86 85 -28 39 -41 38 -30 -1z"/>
<path d="M5682 3016 c-31 -181 -145 -313 -297 -342 -35 -6 -37 -8 -16 -15 32
-12 113 17 211 76 91 56 86 46 118 227 15 82 17 110 8 118 -9 7 -15 -10 -24
-64z"/>
<path d="M2826 2986 c-46 -10 -67 -21 -93 -49 -61 -67 -39 -84 102 -77 174 8
209 6 247 -17 l36 -21 11 24 c6 14 11 47 11 74 l0 48 -52 12 c-83 18 -197 21
-262 6z"/>
<path d="M4345 1666 c-107 -28 -227 -79 -510 -216 -585 -284 -751 -326 -1365
-350 -157 -6 -292 -13 -300 -15 -33 -8 702 7 788 16 177 20 408 86 639 185 59
25 245 113 413 194 168 81 338 160 378 175 111 43 96 47 -43 11z"/>
<path d="M4685 1675 c-79 -21 -137 -47 -355 -157 -633 -321 -1264 -510 -1950
-585 -208 -22 -747 -26 -880 -5 -208 33 -381 97 -494 182 l-55 42 -3 94 c-3
80 -5 92 -18 84 -11 -7 -14 -26 -13 -80 2 -60 7 -78 33 -115 90 -131 261 -214
505 -244 195 -24 654 -10 1010 30 759 85 1523 320 2109 648 214 120 234 139
111 106z"/>
<path d="M1220 1367 c1 -27 44 -105 78 -140 101 -105 317 -157 647 -157 144 1
135 15 -15 23 -144 8 -277 32 -392 71 -121 41 -194 85 -264 158 -30 31 -54 51
-54 45z"/>
<path d="M2260 1271 c-184 -4 -328 -8 -320 -9 112 -19 205 -22 525 -16 250 5
352 10 335 16 -34 14 -150 16 -540 9z"/>
</g>
</svg>
